<mxfile host="app.diagrams.net" modified="2021-04-08T15:32:39.948Z" agent="5.0 (Windows NT 10.0; Win64; x64) AppleWebKit/537.36 (KHTML, like Gecko) Chrome/89.0.4389.114 Safari/537.36" etag="XwZD3P-NY-j_DjbrR9Ya" version="14.4.9" type="github">
  <diagram id="4cKAdu8nWia-SeCUqdoe" name="Page-1">
    <mxGraphModel dx="474" dy="254" grid="1" gridSize="10" guides="1" tooltips="1" connect="1" arrows="1" fold="1" page="1" pageScale="1" pageWidth="827" pageHeight="2000" math="0" shadow="0">
      <root>
        <mxCell id="0" />
        <mxCell id="1" parent="0" />
        <mxCell id="g4oUFbZknNhTbgNnMIni-2" value="&lt;h1&gt;START&lt;/h1&gt;" style="rounded=1;whiteSpace=wrap;html=1;opacity=80;glass=0;perimeterSpacing=7;arcSize=50;" parent="1" vertex="1">
          <mxGeometry x="75" y="30" width="280" height="60" as="geometry" />
        </mxCell>
        <mxCell id="g4oUFbZknNhTbgNnMIni-3" value="현재 패와 필드의 카드로 &lt;br&gt;플레이어를 제압할 수 있는가?" style="rhombus;whiteSpace=wrap;html=1;rounded=1;glass=0;opacity=80;spacing=0;" parent="1" vertex="1">
          <mxGeometry x="75" y="140" width="272.22" height="70" as="geometry" />
        </mxCell>
        <mxCell id="g4oUFbZknNhTbgNnMIni-4" value="YES" style="endArrow=classic;html=1;" parent="1" target="g4oUFbZknNhTbgNnMIni-6" edge="1">
          <mxGeometry width="50" height="50" relative="1" as="geometry">
            <mxPoint x="73" y="180" as="sourcePoint" />
            <mxPoint x="75" y="246" as="targetPoint" />
          </mxGeometry>
        </mxCell>
        <mxCell id="g4oUFbZknNhTbgNnMIni-5" value="" style="endArrow=classic;html=1;" parent="1" edge="1">
          <mxGeometry width="50" height="50" relative="1" as="geometry">
            <mxPoint x="215" y="91" as="sourcePoint" />
            <mxPoint x="215" y="140" as="targetPoint" />
          </mxGeometry>
        </mxCell>
        <mxCell id="g4oUFbZknNhTbgNnMIni-6" value="플레이어를 제압" style="rounded=0;whiteSpace=wrap;html=1;" parent="1" vertex="1">
          <mxGeometry x="10" y="246" width="125" height="30" as="geometry" />
        </mxCell>
        <mxCell id="g4oUFbZknNhTbgNnMIni-7" value="NO" style="endArrow=classic;html=1;" parent="1" edge="1">
          <mxGeometry width="50" height="50" relative="1" as="geometry">
            <mxPoint x="208.9100000000001" y="210" as="sourcePoint" />
            <mxPoint x="208.50000000000003" y="286" as="targetPoint" />
          </mxGeometry>
        </mxCell>
        <mxCell id="g4oUFbZknNhTbgNnMIni-9" value="해당 하수인으로 공격하는 것이 &lt;br&gt;이득인가?" style="rhombus;whiteSpace=wrap;html=1;rounded=1;glass=0;opacity=80;spacing=0;" parent="1" vertex="1">
          <mxGeometry x="361.17" y="360" width="233.33" height="60" as="geometry" />
        </mxCell>
        <mxCell id="g4oUFbZknNhTbgNnMIni-10" value="YES" style="endArrow=classic;html=1;entryX=0.5;entryY=0;entryDx=0;entryDy=0;exitX=0.5;exitY=1;exitDx=0;exitDy=0;" parent="1" source="g4oUFbZknNhTbgNnMIni-9" target="g4oUFbZknNhTbgNnMIni-11" edge="1">
          <mxGeometry width="50" height="50" relative="1" as="geometry">
            <mxPoint x="66" y="508" as="sourcePoint" />
            <mxPoint x="66.625" y="618" as="targetPoint" />
          </mxGeometry>
        </mxCell>
        <mxCell id="g4oUFbZknNhTbgNnMIni-11" value="하수인 공격" style="rounded=0;whiteSpace=wrap;html=1;" parent="1" vertex="1">
          <mxGeometry x="437.5" y="460" width="80.68" height="20" as="geometry" />
        </mxCell>
        <mxCell id="g4oUFbZknNhTbgNnMIni-12" value="보유중인 하수인을 선택" style="rounded=0;whiteSpace=wrap;html=1;" parent="1" vertex="1">
          <mxGeometry x="389.09" y="294" width="177.5" height="44" as="geometry" />
        </mxCell>
        <mxCell id="g4oUFbZknNhTbgNnMIni-14" value="모든 하수인을 선택했는가?" style="rhombus;whiteSpace=wrap;html=1;rounded=1;glass=0;opacity=80;spacing=0;" parent="1" vertex="1">
          <mxGeometry x="94.34000000000003" y="286" width="233.32" height="60" as="geometry" />
        </mxCell>
        <mxCell id="g4oUFbZknNhTbgNnMIni-21" value="" style="endArrow=classic;html=1;entryX=0.5;entryY=0;entryDx=0;entryDy=0;exitX=0.5;exitY=1;exitDx=0;exitDy=0;" parent="1" source="g4oUFbZknNhTbgNnMIni-12" target="g4oUFbZknNhTbgNnMIni-9" edge="1">
          <mxGeometry width="50" height="50" relative="1" as="geometry">
            <mxPoint x="8.499999999999996" y="566" as="sourcePoint" />
            <mxPoint x="58.5" y="516" as="targetPoint" />
          </mxGeometry>
        </mxCell>
        <mxCell id="g4oUFbZknNhTbgNnMIni-22" value="NO" style="endArrow=classic;html=1;exitX=0.978;exitY=0.442;exitDx=0;exitDy=0;exitPerimeter=0;" parent="1" source="g4oUFbZknNhTbgNnMIni-14" edge="1">
          <mxGeometry width="50" height="50" relative="1" as="geometry">
            <mxPoint x="210.50000000000003" y="346" as="sourcePoint" />
            <mxPoint x="389.09" y="313" as="targetPoint" />
          </mxGeometry>
        </mxCell>
        <mxCell id="g4oUFbZknNhTbgNnMIni-25" value="다른 하수인 선택" style="rounded=0;whiteSpace=wrap;html=1;" parent="1" vertex="1">
          <mxGeometry x="650.55" y="377.5" width="100.85" height="25" as="geometry" />
        </mxCell>
        <mxCell id="g4oUFbZknNhTbgNnMIni-36" value="NO" style="endArrow=classic;html=1;exitX=0.978;exitY=0.442;exitDx=0;exitDy=0;exitPerimeter=0;" parent="1" edge="1">
          <mxGeometry width="50" height="50" relative="1" as="geometry">
            <mxPoint x="594.4969600000002" y="389.5800000000001" as="sourcePoint" />
            <mxPoint x="650.55" y="390" as="targetPoint" />
          </mxGeometry>
        </mxCell>
        <mxCell id="g4oUFbZknNhTbgNnMIni-37" value="" style="endArrow=none;html=1;exitX=0.5;exitY=1;exitDx=0;exitDy=0;" parent="1" source="g4oUFbZknNhTbgNnMIni-11" edge="1">
          <mxGeometry width="50" height="50" relative="1" as="geometry">
            <mxPoint x="550" y="420" as="sourcePoint" />
            <mxPoint x="480" y="510" as="targetPoint" />
          </mxGeometry>
        </mxCell>
        <mxCell id="g4oUFbZknNhTbgNnMIni-38" value="" style="endArrow=none;html=1;" parent="1" edge="1">
          <mxGeometry width="50" height="50" relative="1" as="geometry">
            <mxPoint x="480" y="510" as="sourcePoint" />
            <mxPoint x="810" y="510" as="targetPoint" />
          </mxGeometry>
        </mxCell>
        <mxCell id="g4oUFbZknNhTbgNnMIni-39" value="" style="endArrow=none;html=1;" parent="1" edge="1">
          <mxGeometry width="50" height="50" relative="1" as="geometry">
            <mxPoint x="810" y="270" as="sourcePoint" />
            <mxPoint x="810" y="510" as="targetPoint" />
          </mxGeometry>
        </mxCell>
        <mxCell id="g4oUFbZknNhTbgNnMIni-42" value="" style="endArrow=classic;html=1;" parent="1" edge="1">
          <mxGeometry width="50" height="50" relative="1" as="geometry">
            <mxPoint x="810" y="270" as="sourcePoint" />
            <mxPoint x="210" y="270" as="targetPoint" />
          </mxGeometry>
        </mxCell>
        <mxCell id="g4oUFbZknNhTbgNnMIni-43" value="" style="endArrow=none;html=1;exitX=1;exitY=0.5;exitDx=0;exitDy=0;" parent="1" source="g4oUFbZknNhTbgNnMIni-25" edge="1">
          <mxGeometry width="50" height="50" relative="1" as="geometry">
            <mxPoint x="750" y="440" as="sourcePoint" />
            <mxPoint x="810" y="390" as="targetPoint" />
          </mxGeometry>
        </mxCell>
        <mxCell id="g4oUFbZknNhTbgNnMIni-45" value="YES" style="endArrow=classic;html=1;entryX=0.5;entryY=0;entryDx=0;entryDy=0;" parent="1" target="g4oUFbZknNhTbgNnMIni-46" edge="1">
          <mxGeometry width="50" height="50" relative="1" as="geometry">
            <mxPoint x="211" y="350" as="sourcePoint" />
            <mxPoint x="210.58999999999992" y="420" as="targetPoint" />
          </mxGeometry>
        </mxCell>
        <mxCell id="g4oUFbZknNhTbgNnMIni-46" value="모든 주문을 선택했는가?" style="rhombus;whiteSpace=wrap;html=1;rounded=1;glass=0;opacity=80;spacing=0;" parent="1" vertex="1">
          <mxGeometry x="94.34000000000003" y="615" width="233.32" height="60" as="geometry" />
        </mxCell>
        <mxCell id="g4oUFbZknNhTbgNnMIni-48" value="보유중인 주문을 선택" style="rounded=0;whiteSpace=wrap;html=1;" parent="1" vertex="1">
          <mxGeometry x="389.09" y="623" width="177.5" height="44" as="geometry" />
        </mxCell>
        <mxCell id="g4oUFbZknNhTbgNnMIni-49" value="NO" style="endArrow=classic;html=1;exitX=0.978;exitY=0.442;exitDx=0;exitDy=0;exitPerimeter=0;" parent="1" edge="1">
          <mxGeometry width="50" height="50" relative="1" as="geometry">
            <mxPoint x="322.52696000000014" y="644.6599999999999" as="sourcePoint" />
            <mxPoint x="389.0899999999999" y="645.14" as="targetPoint" />
          </mxGeometry>
        </mxCell>
        <mxCell id="g4oUFbZknNhTbgNnMIni-50" value="해당 주문을 사용하면 이득인가?" style="rhombus;whiteSpace=wrap;html=1;rounded=1;glass=0;opacity=80;spacing=0;" parent="1" vertex="1">
          <mxGeometry x="361.17" y="700" width="233.33" height="60" as="geometry" />
        </mxCell>
        <mxCell id="g4oUFbZknNhTbgNnMIni-51" value="YES" style="endArrow=classic;html=1;entryX=0.5;entryY=0;entryDx=0;entryDy=0;exitX=0.5;exitY=1;exitDx=0;exitDy=0;" parent="1" source="g4oUFbZknNhTbgNnMIni-50" target="g4oUFbZknNhTbgNnMIni-52" edge="1">
          <mxGeometry width="50" height="50" relative="1" as="geometry">
            <mxPoint x="66" y="848" as="sourcePoint" />
            <mxPoint x="66.625" y="958" as="targetPoint" />
          </mxGeometry>
        </mxCell>
        <mxCell id="g4oUFbZknNhTbgNnMIni-52" value="주문사용" style="rounded=0;whiteSpace=wrap;html=1;" parent="1" vertex="1">
          <mxGeometry x="437.5" y="800" width="80.68" height="20" as="geometry" />
        </mxCell>
        <mxCell id="g4oUFbZknNhTbgNnMIni-53" value="다른 주문 선택" style="rounded=0;whiteSpace=wrap;html=1;" parent="1" vertex="1">
          <mxGeometry x="650.55" y="717.5" width="100.85" height="25" as="geometry" />
        </mxCell>
        <mxCell id="g4oUFbZknNhTbgNnMIni-54" value="NO" style="endArrow=classic;html=1;exitX=0.978;exitY=0.442;exitDx=0;exitDy=0;exitPerimeter=0;" parent="1" edge="1">
          <mxGeometry width="50" height="50" relative="1" as="geometry">
            <mxPoint x="594.4969600000002" y="729.5800000000002" as="sourcePoint" />
            <mxPoint x="650.55" y="730.0000000000001" as="targetPoint" />
          </mxGeometry>
        </mxCell>
        <mxCell id="g4oUFbZknNhTbgNnMIni-55" value="" style="endArrow=none;html=1;exitX=0.5;exitY=1;exitDx=0;exitDy=0;" parent="1" source="g4oUFbZknNhTbgNnMIni-52" edge="1">
          <mxGeometry width="50" height="50" relative="1" as="geometry">
            <mxPoint x="550" y="760" as="sourcePoint" />
            <mxPoint x="480" y="850" as="targetPoint" />
          </mxGeometry>
        </mxCell>
        <mxCell id="g4oUFbZknNhTbgNnMIni-56" value="" style="endArrow=none;html=1;" parent="1" edge="1">
          <mxGeometry width="50" height="50" relative="1" as="geometry">
            <mxPoint x="480" y="850" as="sourcePoint" />
            <mxPoint x="810" y="850" as="targetPoint" />
          </mxGeometry>
        </mxCell>
        <mxCell id="g4oUFbZknNhTbgNnMIni-57" value="" style="endArrow=none;html=1;" parent="1" edge="1">
          <mxGeometry width="50" height="50" relative="1" as="geometry">
            <mxPoint x="810" y="585" as="sourcePoint" />
            <mxPoint x="810" y="850" as="targetPoint" />
          </mxGeometry>
        </mxCell>
        <mxCell id="g4oUFbZknNhTbgNnMIni-58" value="" style="endArrow=classic;html=1;" parent="1" edge="1">
          <mxGeometry width="50" height="50" relative="1" as="geometry">
            <mxPoint x="810" y="585" as="sourcePoint" />
            <mxPoint x="210" y="585" as="targetPoint" />
          </mxGeometry>
        </mxCell>
        <mxCell id="g4oUFbZknNhTbgNnMIni-59" value="" style="endArrow=none;html=1;exitX=1;exitY=0.5;exitDx=0;exitDy=0;" parent="1" source="g4oUFbZknNhTbgNnMIni-53" edge="1">
          <mxGeometry width="50" height="50" relative="1" as="geometry">
            <mxPoint x="750" y="780" as="sourcePoint" />
            <mxPoint x="810" y="730.0000000000001" as="targetPoint" />
          </mxGeometry>
        </mxCell>
        <mxCell id="g4oUFbZknNhTbgNnMIni-62" value="" style="endArrow=classic;html=1;exitX=0.5;exitY=1;exitDx=0;exitDy=0;" parent="1" source="g4oUFbZknNhTbgNnMIni-48" target="g4oUFbZknNhTbgNnMIni-50" edge="1">
          <mxGeometry width="50" height="50" relative="1" as="geometry">
            <mxPoint x="440" y="590" as="sourcePoint" />
            <mxPoint x="490" y="540" as="targetPoint" />
          </mxGeometry>
        </mxCell>
        <mxCell id="g4oUFbZknNhTbgNnMIni-63" value="YES" style="endArrow=classic;html=1;entryX=0.5;entryY=0;entryDx=0;entryDy=0;" parent="1" edge="1" target="LpWBtAVl-2Sken_FvuLC-1">
          <mxGeometry width="50" height="50" relative="1" as="geometry">
            <mxPoint x="209" y="680" as="sourcePoint" />
            <mxPoint x="208.96499999999992" y="864.9839999999999" as="targetPoint" />
          </mxGeometry>
        </mxCell>
        <mxCell id="LpWBtAVl-2Sken_FvuLC-1" value="소환할수 있는 하수인이 존재하는가?" style="rhombus;whiteSpace=wrap;html=1;rounded=1;glass=0;opacity=80;spacing=0;" vertex="1" parent="1">
          <mxGeometry x="80.17" y="900" width="261.66" height="90" as="geometry" />
        </mxCell>
        <mxCell id="LpWBtAVl-2Sken_FvuLC-3" value="YES" style="endArrow=classic;html=1;exitX=1;exitY=0.5;exitDx=0;exitDy=0;entryX=0;entryY=0.5;entryDx=0;entryDy=0;" edge="1" parent="1" source="LpWBtAVl-2Sken_FvuLC-1" target="LpWBtAVl-2Sken_FvuLC-10">
          <mxGeometry width="50" height="50" relative="1" as="geometry">
            <mxPoint x="340" y="940" as="sourcePoint" />
            <mxPoint x="385" y="945" as="targetPoint" />
          </mxGeometry>
        </mxCell>
        <mxCell id="LpWBtAVl-2Sken_FvuLC-5" value="현재 소환할수 있는 가장 강한 하수인인가?" style="rhombus;whiteSpace=wrap;html=1;rounded=1;glass=0;opacity=80;spacing=0;" vertex="1" parent="1">
          <mxGeometry x="570" y="905" width="285" height="80" as="geometry" />
        </mxCell>
        <mxCell id="LpWBtAVl-2Sken_FvuLC-10" value="하수인을 선택한다." style="rounded=0;whiteSpace=wrap;html=1;glass=0;opacity=80;" vertex="1" parent="1">
          <mxGeometry x="410" y="927.5" width="121.82" height="35" as="geometry" />
        </mxCell>
        <mxCell id="LpWBtAVl-2Sken_FvuLC-12" value="" style="endArrow=classic;html=1;entryX=0.431;entryY=0.028;entryDx=0;entryDy=0;entryPerimeter=0;" edge="1" parent="1" target="LpWBtAVl-2Sken_FvuLC-10">
          <mxGeometry width="50" height="50" relative="1" as="geometry">
            <mxPoint x="463" y="880" as="sourcePoint" />
            <mxPoint x="350" y="920" as="targetPoint" />
          </mxGeometry>
        </mxCell>
        <mxCell id="LpWBtAVl-2Sken_FvuLC-13" value="NO" style="endArrow=none;html=1;entryX=0.5;entryY=0;entryDx=0;entryDy=0;" edge="1" parent="1" target="LpWBtAVl-2Sken_FvuLC-5">
          <mxGeometry width="50" height="50" relative="1" as="geometry">
            <mxPoint x="713" y="880" as="sourcePoint" />
            <mxPoint x="350" y="920" as="targetPoint" />
          </mxGeometry>
        </mxCell>
        <mxCell id="LpWBtAVl-2Sken_FvuLC-14" value="" style="endArrow=none;html=1;" edge="1" parent="1">
          <mxGeometry width="50" height="50" relative="1" as="geometry">
            <mxPoint x="460" y="880" as="sourcePoint" />
            <mxPoint x="710" y="880" as="targetPoint" />
          </mxGeometry>
        </mxCell>
      </root>
    </mxGraphModel>
  </diagram>
</mxfile>
